<svg id="圖層_1" data-name="圖層 1" xmlns="http://www.w3.org/2000/svg" viewBox="0 0 66 66"><defs><linearGradient id="未命名漸層_23" x1="33.11" y1="38.81" x2="33.11" y2="26.85" gradientUnits="userSpaceOnUse"><stop offset=".46" stop-color="#fff" stop-opacity="0"/><stop offset="1" stop-color="#1ad2f1" stop-opacity=".3"/></linearGradient><style>.cls-3{fill:#1ad2f1}</style></defs><circle cx="33.11" cy="33.12" r="20" fill="#06b4fd"/><path d="M25.05 35a2.12 2.12 0 00-.82 1.2 2.53 2.53 0 00.64 2.29 4.39 4.39 0 002.63 1.11 7.11 7.11 0 004.22-1.45 8.73 8.73 0 002-2 12.62 12.62 0 00-6.09-1.76 5.86 5.86 0 00-2.58.61zm21.56 3.88A14.7 14.7 0 1045 41.71c-2.52-1.24-6.67-3.31-9.24-4.56a11.26 11.26 0 01-5.06 3.39 7.21 7.21 0 01-3.63.28 4.84 4.84 0 01-2.6-1.37 4.93 4.93 0 01-.78-1.08.16.16 0 010 .09 2.42 2.42 0 01-.22-.56 3.28 3.28 0 01-.1-.51 2.29 2.29 0 010-.37 3.24 3.24 0 010-.69 3.43 3.43 0 011-1.88A5.76 5.76 0 0128.71 33a22.64 22.64 0 016.08 1.39A21.65 21.65 0 0036 30.93h-8.8V30h4.52v-1.93h-5.47v-1h5.46V25.2c0-.27.05-.47.47-.47h2.14v2.37h5.94v1h-5.94V30h4.75a19.09 19.09 0 01-2 5.28c3.33 1.14 8 2.96 9.54 3.57z" fill="#fff" opacity=".9"/><path class="cls-3" d="M55.11 4.12a7 7 0 017 7V16h1v-4.88a8 8 0 00-8-8h-7v1zM4.11 11.12a7 7 0 017-7h7v-1h-7a8 8 0 00-8 8V16h1zM62.11 55.12a7 7 0 01-7 7h-7v1h7a8 8 0 008-8V46h-1zM11.11 62.12a7 7 0 01-7-7V46h-1v9.09a8 8 0 008 8h7v-1zM33.11 27.31c15.8 0 28.74 2.43 29.91 5.52a1.2 1.2 0 00.09-.45c0-3.3-13.43-6-30-6s-30 2.68-30 6a1.22 1.22 0 00.1.45c1.17-3.09 14.1-5.52 29.9-5.52z"/><ellipse cx="33.11" cy="32.83" rx="30" ry="5.98" fill="url(#未命名漸層_23)"/></svg>