<svg data-name="圖層 1" xmlns="http://www.w3.org/2000/svg" viewBox="0 0 66 66"><circle cx="33" cy="33" r="30" fill="#06b4fd"/><path d="M20.9 35.77a3.22 3.22 0 00-1.23 1.81 3.76 3.76 0 001 3.43 6.63 6.63 0 003.93 1.67 10.66 10.66 0 006.34-2.18 13.22 13.22 0 003-3c-2.55-1.32-5.74-2.77-9.13-2.64a9 9 0 00-3.91.91zm32.34 5.83a22 22 0 10-2.42 4.29C47 44 40.81 40.92 37 39.05a16.92 16.92 0 01-7.59 5.08 10.92 10.92 0 01-5.46.42 7.27 7.27 0 01-3.89-2 7.19 7.19 0 01-1.17-1.62.21.21 0 010 .13 3.38 3.38 0 01-.33-.84 5 5 0 01-.16-.77 2.53 2.53 0 010-.55 4 4 0 01.07-1A5.17 5.17 0 0120 35a8.68 8.68 0 016.4-2.15 33.85 33.85 0 019.11 2.09 30.76 30.76 0 001.8-5.22h-13.2v-1.43h6.78v-2.86H22.7V24h8.19v-2.88c0-.4.09-.7.7-.7h3.21V24h8.91v1.43H34.8v2.86h7.13a28.26 28.26 0 01-3 7.92c5 1.79 12 4.47 14.31 5.39z" fill="#fff" opacity=".9"/></svg>