<svg id="图层_1" data-name="图层 1" xmlns="http://www.w3.org/2000/svg" viewBox="0 0 34.13 34.13"><defs><style>.cls-1{fill:#17acc7}</style></defs><path class="cls-1" d="M24.39 16.46H10.3a1.51 1.51 0 000 3h14.09A1.44 1.44 0 0025.9 18a1.52 1.52 0 00-1.51-1.54zM24.39 23.57H10.3a1.51 1.51 0 000 3h14.09a1.44 1.44 0 001.51-1.51 1.52 1.52 0 00-1.51-1.49z"/><path d="M27.41 4.48h-2.52v-2h-3a6 6 0 00-4.57-2 6 6 0 00-4.58 2h-3v2H7.28A4.53 4.53 0 002.75 9v20.14a4.53 4.53 0 004.53 4.53h20.13a4.53 4.53 0 004.53-4.53V9a4.53 4.53 0 00-4.53-4.52zm-5.54 1v3h-9v-3H15V5c0-.84 1-1.51 2.32-1.51s2.31.7 2.31 1.51v.5zm3 6v-4h2.52A1.52 1.52 0 0128.92 9v20.14a1.52 1.52 0 01-1.51 1.51H7.28a1.52 1.52 0 01-1.51-1.51V9a1.52 1.52 0 011.51-1.5H9.8v4z" fill="#c4daff"/></svg>