<svg data-name="圖層 1" xmlns="http://www.w3.org/2000/svg" viewBox="0 0 64 64"><path d="M35.05 31.68l-5.48 5.48a1.77 1.77 0 000 2.07 1.44 1.44 0 002.09 0l5.47-5.47 5.47 5.47a1.57 1.57 0 001 .45 1.59 1.59 0 001-.45 1.44 1.44 0 000-2.08l-5.47-5.47 5.47-5.47a1.46 1.46 0 000-2.09 1.51 1.51 0 00-1-.44 1.47 1.47 0 00-1 .44l-5.47 5.47-5.47-5.47a1.48 1.48 0 10-2.09 2.09z"/><path d="M55.74 14H22.52c-.75 0-1.4 0-17.52 16.79a1.44 1.44 0 000 2.08c16.26 16.37 16.79 16.37 17.52 16.37h33.22a2.82 2.82 0 002.82-2.81V16.8a2.82 2.82 0 00-2.82-2.8zm-.16 3v29.27H23c-1.73-1.33-8.82-8.46-14.71-14.59C14.5 25.18 21.44 18.24 23 17z"/></svg>