<svg viewBox="0 0 1024 1024" xmlns="http://www.w3.org/2000/svg" width="200" height="200"><defs><style/></defs><path d="M762.3 565.3c0-19 15.7-34.1 34.7-34.1 19 0 34.2 15.1 34.2 34.1v336.3c0 19-15.2 34.4-34.2 34.4H229.6c-19.1 0-34.7-15.4-34.7-34.4V565.3c0-19 15.7-34.1 34.7-34.1 18.6 0 34.2 15.1 34.2 34.1v301.9h498.5V565.3zm-638.2 9.3l388.8-387.8 389.3 387.8c13.2 13.2 35.2 13.2 48.4 0 13.4-13.2 13.4-35.1 0-48.3L538 114.1l-.7-.5c-13.4-13.2-35.2-13.2-48.6 0l-413 412.6c-13.6 13.2-13.6 35.1 0 48.3 13.2 13.2 35.2 13.2 48.4.1z"/></svg>