·<svg id="图层_1" data-name="图层 1" xmlns="http://www.w3.org/2000/svg" viewBox="0 0 52.32 56"><title>未标题-1</title><path d="M24.44,54.47c0-2,2.29-3.43,5.39-3.39a7.67,7.67,0,0,1,4.34,1.32l.11.08.14,0a19.07,19.07,0,0,0,12.2-8.88l.24-.4-.46-.07a5.42,5.42,0,0,1-4.76-5.41l.09-7.55a5.22,5.22,0,0,1,5.41-5.28h.32l0-2.2a17.3,17.3,0,1,0-34.6-.42l0,2.2h.32a5.23,5.23,0,0,1,5.28,5.42l-.09,7.55a5.23,5.23,0,0,1-5.42,5.28l-3.77,0a5.22,5.22,0,0,1-5.28-5.41L4,29.68A5.22,5.22,0,0,1,9.39,24.4h.32l0-2.2a20.45,20.45,0,0,1,40.9.5l0,2.2h.32a5.22,5.22,0,0,1,5.28,5.41l-.09,7.55a5.23,5.23,0,0,1-5.41,5.28h-.4l-.08.18A22.14,22.14,0,0,1,35,55.62l-.14,0-.07.13c-.71,1.38-2.68,2.25-5,2.22C26.65,58,24.42,56.48,24.44,54.47ZM9.35,27.55a2.09,2.09,0,0,0-2.22,2.17L7,37.27A2.11,2.11,0,0,0,9.21,39.5l3.77,0a2.09,2.09,0,0,0,2.23-2.17l.09-7.55a2.1,2.1,0,0,0-2.17-2.23ZM47.1,28a2.09,2.09,0,0,0-2.22,2.17l-.1,7.55A2.11,2.11,0,0,0,47,40l3.77,0A2.11,2.11,0,0,0,53,37.83l.09-7.55a2.1,2.1,0,0,0-2.17-2.23Z" transform="translate(-3.89 -2)"/></svg>