<svg xmlns="http://www.w3.org/2000/svg" viewBox="0 0 96.7 96.7"><path class="st0" d="M47.7 1.7C22.2 1.7 1.5 22.3 1.5 47.8S22.2 94 47.7 94s46.2-20.7 46.2-46.2S73.2 1.7 47.7 1.7zm0 5.8C69.9 7.5 88 25.6 88 47.8c0 9-2.9 17.3-7.9 24-4.3-6.6-11.8-11.2-20.4-12 5.9-3.7 9.8-10 9.8-17.2 0-11.4-9.9-20.6-22-20.6-12.2 0-22 9.2-22 20.6 0 7.1 3.8 13.4 9.7 17.1-8.5.5-16 4.9-20.4 11.2-4.8-6.5-7.5-14.5-7.5-23.1 0-22.2 18.1-40.3 40.4-40.3zm-.3 50.2c-8.9 0-16.1-6.7-16.1-15.1 0-8.3 7.2-15.1 16.1-15.1 8.9 0 16.1 6.7 16.1 15.1 0 8.4-7.2 15.1-16.1 15.1zM19 76.2c3.2-6.4 10.2-10.9 18.2-10.9H57c8.3 0 15.5 4.8 18.6 11.6-7.2 6.9-17.1 11.2-27.9 11.2-11.2.1-21.4-4.5-28.7-11.9z"/></svg>