<svg xmlns="http://www.w3.org/2000/svg" viewBox="0 0 43.9 43.9"><g data-name="圖層 2"><g data-name="圖層 1"><path d="M10.5 43.9a10.5 10.5 0 010-21h22.9a10.5 10.5 0 110 21zm0-18.1A7.51 7.51 0 003 33.3a7.91 7.91 0 002.2 5.4 7.49 7.49 0 005.3 2.2h22.9a7.55 7.55 0 000-15.1zm11.4-4.3a10.75 10.75 0 1110.7-10.8 10.71 10.71 0 01-10.7 10.8zm0-18.6a7.64 7.64 0 00-5.5 2.3 7.73 7.73 0 000 11 7.73 7.73 0 0011 0 7.73 7.73 0 000-11 7.88 7.88 0 00-5.5-2.3z"/><path d="M30 38.1a1.5 1.5 0 010-3h4a1.5 1.5 0 110 3z" fill="#00b4c6"/></g></g></svg>