<svg xmlns="http://www.w3.org/2000/svg" viewBox="0 0 153 153"><defs><style>.cls-1{fill:#1ee8e7;}.cls-2{fill:#00befe;}</style></defs><title>画板 1</title><g id="图层_1" data-name="图层 1"><rect class="cls-1" x="124.01" y="48.76" width="8.91" height="52.72" rx="4" ry="4"/><rect class="cls-1" x="142.57" y="22.77" width="8.17" height="104.7" rx="4.08" ry="4.08"/></g><g id="图层_2" data-name="图层 2"><path class="cls-2" d="M92.83,7.92,52,40.6H35.65C-.73,42.08,2.24,79.21,2.24,79.21c3,27.47,29,31.18,29,31.18H52l42.32,34.16c11.19,6.95,12.62-8.3,12.62-8.3V11.64C105.5-.5,92.83,7.92,92.83,7.92Zm-3,110.64L57.93,93.31H54.21V69.55a10.81,10.81,0,0,0-.58-1c-3-4.69-6.78-.87-8,.55-.24.29-.38.48-.38.48v23H32.68C15.5,91.5,20.8,68.81,20.8,68.81A15.05,15.05,0,0,1,34.17,58.42h23l32.68-26Z"/></g></svg>