<svg data-name="圖層 1" xmlns="http://www.w3.org/2000/svg" viewBox="0 0 48 48"><path d="M41.35 17a23.41 23.41 0 00-17.43-8.13A23.27 23.27 0 006.4 17.13c-2.22 2.54-4.4 6-4.4 7 0 .67 1.38 4 4.49 7.41a23.17 23.17 0 0017.75 7.6 22.4 22.4 0 0016.61-6.7C44.45 28.83 46 25 46 24.2c0-1.1-2.26-4.62-4.65-7.2zm1.44 7.14a19.72 19.72 0 01-18.55 11.65c-6.3 0-11.47-2.2-15.34-6.55a21.41 21.41 0 01-3.44-5l-.06-.13.06-.11a27.47 27.47 0 013.44-4.84C13.21 14.39 18.32 12 24.08 12a19.83 19.83 0 0114.93 7 29.47 29.47 0 013.71 5z"/><path d="M24.24 14.65a9.23 9.23 0 109.24 9.23 9.24 9.24 0 00-9.24-9.23zm6 9.23a5.87 5.87 0 11-1.64-4.18 5.81 5.81 0 011.62 4.18z"/><path d="M22.29 20a2.08 2.08 0 102.08 2.08A2.08 2.08 0 0022.29 20z"/></svg>