<svg id="图层_1" data-name="图层 1" xmlns="http://www.w3.org/2000/svg" viewBox="0 0 34.13 34.13"><defs><style>.cls-1{fill:#c4daff}</style></defs><path class="cls-1" d="M13.29 21.32H6.88a1.5 1.5 0 100 3h6.41a1.5 1.5 0 000-3zM13.29 16.36H6.88a1.5 1.5 0 100 3h6.41a1.5 1.5 0 000-3z"/><path class="cls-1" d="M30.22 5.49H3.9A3.34 3.34 0 00.56 8.83v18.32a3.35 3.35 0 003.34 3.34h26.32a3.35 3.35 0 003.34-3.34V8.83a3.34 3.34 0 00-3.34-3.34zm.34 3.34v18.32a.34.34 0 01-.34.34H3.9a.34.34 0 01-.34-.34V8.83a.34.34 0 01.34-.34h26.32a.34.34 0 01.34.34z"/><path class="cls-1" d="M13.29 11.4H6.88a1.5 1.5 0 000 3h6.41a1.5 1.5 0 000-3z"/><path d="M25.87 18.17a4.44 4.44 0 00.92-2.72A4.5 4.5 0 1018.61 18a6.48 6.48 0 00-3 5.43 1.5 1.5 0 003 0 3.5 3.5 0 017 0 1.5 1.5 0 003 0 6.5 6.5 0 00-2.74-5.26zm-2.08-2.72a1.5 1.5 0 11-1.5-1.5 1.5 1.5 0 011.5 1.5z" fill="#17acc7"/></svg>