<svg viewBox="0 0 1024 1024" xmlns="http://www.w3.org/2000/svg" width="200" height="200"><defs><style/></defs><path d="M147.32 871.39A510.361 510.361 0 010 512C0 229.24 229.24 0 512 0s512 229.24 512 512c0 140.049-56.218 266.922-147.32 359.39A510.43 510.43 0 01512 1024a510.43 510.43 0 01-364.68-152.61zm30.071-67.926a384.853 384.853 0 01232.994-181.862 204.8 204.8 0 11203.23 0c99.704 27.307 183.228 93.764 232.994 181.862A442.027 442.027 0 00955.733 512c0-245.077-198.656-443.733-443.733-443.733S68.267 266.923 68.267 512a442.027 442.027 0 00109.124 291.464z"/></svg>