<svg id="图层_1" data-name="图层 1" xmlns="http://www.w3.org/2000/svg" viewBox="0 0 34.13 34.13"><defs><style>.cls-2{fill:#17acc7}</style></defs><path d="M33.61 23.84v-.05a1.57 1.57 0 00-.89-.79 4.28 4.28 0 010-8.07 1.59 1.59 0 001.06-1.5v-2.81a3.92 3.92 0 00-3.93-3.87h-.3L7.23 1.3a3.9 3.9 0 00-4.62 3L2 7a1.83 1.83 0 000 .47 3.87 3.87 0 00-1.64 3.2v2.76A1.58 1.58 0 001.42 15a4.26 4.26 0 012.84 4 4.27 4.27 0 01-2.85 4 1.59 1.59 0 00-1.06 1.5v2.82a3.83 3.83 0 001.16 2.74 3.92 3.92 0 002.76 1.13h25.6a3.91 3.91 0 003.91-3.91v-2.72a1.65 1.65 0 00-.17-.72zM5.35 6.77L5.73 5a.71.71 0 01.69-.57h.13l9.59 2.35zM3.53 25.55A7.56 7.56 0 007.45 19a7.55 7.55 0 00-3.91-6.57v-1.75a.78.78 0 01.21-.52.83.83 0 01.52-.16h25.57a.79.79 0 01.53.2.76.76 0 01.21.52v1.68a7.47 7.47 0 000 13.15v1.77a.72.72 0 01-.72.72L4.25 28a.71.71 0 01-.51-.21.74.74 0 01-.21-.51z" fill="#c4daff"/><path class="cls-2" d="M10.78 17.09h12.6A1.6 1.6 0 0025 15.46a1.62 1.62 0 00-1.62-1.58h-12.6a1.61 1.61 0 000 3.21zM10.77 23.59h12.61A1.61 1.61 0 0025 22a1.62 1.62 0 00-1.62-1.57H10.75a1.6 1.6 0 00-1.13.48 1.61 1.61 0 001.15 2.72z"/></svg>