<svg xmlns="http://www.w3.org/2000/svg" viewBox="0 0 52.2 52.1"><g data-name="圖層 2"><path d="M26 52.1a25.95 25.95 0 01-16-5.5 24.67 24.67 0 01-5-5.2L3.3 39v7.3a1.54 1.54 0 01-1.5 1.5h-.2a1.54 1.54 0 01-1.5-1.5V35.6a1.54 1.54 0 011.5-1.5h10.7a1.54 1.54 0 011.5 1.5v.2a1.54 1.54 0 01-1.5 1.5H5.9l1 1.5a21.45 21.45 0 005 5.4 23.14 23.14 0 0032.4-3.9 23.2 23.2 0 004.9-13.8v-.3a1.61 1.61 0 01.3-.9 1.43 1.43 0 011.2-.6 1.4 1.4 0 01.9.3 1.38 1.38 0 01.6 1.1v.2a23.72 23.72 0 01-.9 6.5 25.7 25.7 0 01-4.6 9.2 25.44 25.44 0 01-7.9 6.7 25.93 25.93 0 01-9.5 3.1 20.2 20.2 0 01-3.3.3zM1.5 27.3a1.4 1.4 0 01-.9-.3 1.38 1.38 0 01-.6-1.1v-.2a23.72 23.72 0 01.9-6.5A25.7 25.7 0 015.5 10a25.44 25.44 0 017.9-6.7A25.93 25.93 0 0122.9.2c1-.1 2.1-.2 3.2-.2a26 26 0 0116 5.5 24.67 24.67 0 015 5.2l1.7 2.4V5.8a1.54 1.54 0 011.5-1.5h.2a2.1 2.1 0 011.1.4 1.5 1.5 0 01.4 1.1v10.7a1.54 1.54 0 01-1.5 1.5H39.8a1.54 1.54 0 01-1.5-1.5v-.2a1.54 1.54 0 011.5-1.5h6.4l-1-1.5a21.45 21.45 0 00-5-5.4 23.14 23.14 0 00-32.4 3.9 23.2 23.2 0 00-4.9 13.8v.2a1.61 1.61 0 01-.3.9 1.15 1.15 0 01-1.1.6z" data-name="圖層 1"/></g></svg>