<svg id="图层_1" data-name="图层 1" xmlns="http://www.w3.org/2000/svg" viewBox="0 0 33.71 33.71"><defs><style>.cls-2{fill:#17acc7}</style></defs><path d="M28.55 8.7h-6.06a4.74 4.74 0 00-4.71-4.51H5.09A4.74 4.74 0 00.38 8.7v16.46A4.83 4.83 0 005.16 30h23.39a4.82 4.82 0 004.8-4.81V13.51a4.83 4.83 0 00-4.8-4.81zM5.09 7.28h12.69a1.65 1.65 0 011.63 1.42H3.46a1.65 1.65 0 011.63-1.42zm25.18 6.63v11.24a1.74 1.74 0 01-1.72 1.73H5.16a1.73 1.73 0 01-1.72-1.73V11.77h25.1a1.74 1.74 0 011.73 1.73z" fill="#c4daff"/><path class="cls-2" d="M18.25 19.41a5.5 5.5 0 005.5 5.5h6.52v-3.07h-6.52a2.43 2.43 0 010-4.85h6.52v-3.08h-6.52a5.51 5.51 0 00-5.5 5.5z"/><path class="cls-2" d="M27.27 18.32a1.5 1.5 0 00-1.09-.46H23.7a1.54 1.54 0 00-1.54 1.54 1.46 1.46 0 00.45 1.09 1.52 1.52 0 001.09.45h2.48a1.54 1.54 0 001.54-1.53 1.52 1.52 0 00-.45-1.09z"/></svg>