<svg class="icon" viewBox="0 0 1024 1024" xmlns="http://www.w3.org/2000/svg" width="200" height="200"><defs><style/></defs><path d="M989.789 857.485L571.231 113.038c-26.448-47.041-92.57-47.041-119.018 0L33.655 857.485c-26.448 47.041 6.612 105.843 59.509 105.843H930.28c52.897 0 85.958-58.801 59.509-105.843zM467.794 365.381c12.28-14.738 27.887-22.109 46.929-22.109 19.051 0 34.649 7.296 46.937 21.814 12.206 14.555 18.311 32.758 18.311 54.645 0 18.828-25.49 157.304-33.985 258.047h-61.4c-7.459-100.741-35.114-239.216-35.114-258.047.003-21.555 6.118-39.683 18.322-54.35zm92.997 479.023c-12.911 13.965-28.277 20.929-46.066 20.929-17.781 0-33.156-6.965-46.067-20.929-12.877-13.928-19.283-30.805-19.283-50.63 0-19.713 6.405-36.774 19.283-51.072 12.911-14.297 28.286-21.445 46.067-21.445 17.789 0 33.156 7.149 46.066 21.445 12.877 14.297 19.291 31.357 19.291 51.072 0 19.827-6.413 36.703-19.291 50.63z"/></svg>