<svg data-name="圖層 1" xmlns="http://www.w3.org/2000/svg" viewBox="0 0 66 66"><defs><linearGradient id="a" x1="32.97" y1="38.71" x2="32.97" y2="26.76" gradientUnits="userSpaceOnUse"><stop offset=".46" stop-color="#fff" stop-opacity="0"/><stop offset="1" stop-color="#1ad2f1" stop-opacity=".3"/></linearGradient></defs><circle cx="32.97" cy="33.02" r="20" fill="#09bb07"/><path d="M29.34 36.07a.74.74 0 01-.4.1.89.89 0 01-.77-.46l-.06-.12-2.44-5.25a.38.38 0 010-.18.41.41 0 01.43-.43.54.54 0 01.28.09l2.87 2a1.52 1.52 0 00.74.21 1.31 1.31 0 00.47-.09L43.9 26A14.34 14.34 0 0033 21.4c-7.35 0-13.35 4.91-13.35 11a10.34 10.34 0 004.6 8.3.87.87 0 01.37.7.88.88 0 01-.06.27c-.21.82-.59 2.17-.59 2.23a1.08 1.08 0 00-.06.33.42.42 0 00.43.43.35.35 0 00.25-.09l2.91-1.68a1.47 1.47 0 01.71-.21 1.94 1.94 0 01.4.06 15.52 15.52 0 004.36.61c7.35 0 13.35-4.91 13.35-11a9.54 9.54 0 00-1.52-5.09L29.44 36l-.1.06z" fill="#fff" opacity=".9"/><path d="M55 4a7 7 0 017 7v4.92h1V11a8 8 0 00-8-8h-7v1zM4 11a7 7 0 017-7h7V3h-7a8 8 0 00-8 8v4.92h1zm58 44a7 7 0 01-7 7h-7v1h7a8 8 0 008-8v-9.06h-1zm-51 7a7 7 0 01-7-7v-9.06H3V55a8 8 0 008 8h7v-1zm22-34.79c15.8 0 28.74 2.44 29.91 5.52a1.2 1.2 0 00.09-.45c0-3.3-13.43-6-30-6S3 29 3 32.28a1.22 1.22 0 00.1.45c1.14-3.08 14.07-5.52 29.9-5.52z" fill="#1ad2f1"/><ellipse cx="32.97" cy="32.73" rx="30" ry="5.98" fill="url(#a)"/></svg>