<svg data-name="圖層 1" xmlns="http://www.w3.org/2000/svg" viewBox="0 0 66 66"><circle cx="33" cy="33" r="30" fill="#09bb07"/><path d="M28.31 37.58a1.37 1.37 0 01-.61.14 1.33 1.33 0 01-1.16-.72l-.09-.18L22.79 29a.54.54 0 01-.05-.28.63.63 0 01.65-.64.78.78 0 01.42.14l4.31 3a2.28 2.28 0 001.11.32 1.94 1.94 0 00.7-.14l20.21-8.87c-3.61-4.21-9.59-7-16.36-7-11 0-20 7.37-20 16.47 0 4.94 2.69 9.42 6.91 12.44a1.34 1.34 0 01.55 1.05 1.16 1.16 0 01-.09.41c-.33 1.24-.89 3.25-.89 3.34a1.86 1.86 0 00-.09.51.63.63 0 00.65.64.53.53 0 00.37-.14l4.36-2.51a2.12 2.12 0 011.06-.32 2.42 2.42 0 01.6.09 23.7 23.7 0 006.54.92c11 0 20-7.37 20-16.47a14.29 14.29 0 00-2.27-7.64l-23 13.13-.13.09z" fill="#fff" opacity=".9"/></svg>