<?xml version="1.0" encoding="utf-8"?>
<!-- Generator: Adobe Illustrator 22.0.0, SVG Export Plug-In . SVG Version: 6.00 Build 0)  -->
<svg version="1.1" id="tc_1" xmlns="http://www.w3.org/2000/svg" xmlns:xlink="http://www.w3.org/1999/xlink" x="0px" y="0px"
	 viewBox="0 0 118.3 118.3" style="enable-background:new 0 0 118.3 118.3;" xml:space="preserve">
<style type="text/css">
	.st0{fill:url(#SVGID_1_);}
	.st1{fill:url(#SVGID_2_);}
	.st2{fill:url(#SVGID_3_);}
	.st3{fill:url(#SVGID_4_);}
	.st4{fill:url(#SVGID_5_);}
	.st5{fill:url(#SVGID_6_);}
	.st6{fill:url(#SVGID_7_);}
	.st7{fill:#B6FFFD;}
	.st8{fill:url(#SVGID_8_);}
	.st9{fill:#589CB7;}
	.st10{fill:url(#SVGID_9_);}
	.st11{fill:url(#SVGID_10_);}
	.st12{fill:url(#SVGID_11_);}
	.st13{fill:#67C7F2;}
	.st14{fill:#6AB3D7;}
	.st15{fill:url(#SVGID_12_);}
	.st16{fill:#77FCFC;}
	.st17{fill:#FFFFFF;}
</style>
<g>
	<linearGradient id="SVGID_1_" gradientUnits="userSpaceOnUse" x1="49.5353" y1="90.8028" x2="67.7796" y2="72.5586">
		<stop  offset="0" style="stop-color:#77FCFC"/>
		<stop  offset="0.2662" style="stop-color:#75F0F7"/>
		<stop  offset="0.7488" style="stop-color:#6ECFEB"/>
		<stop  offset="1" style="stop-color:#6ABCE3"/>
	</linearGradient>
	<polygon class="st0" points="43.4,84.6 75,84.6 75,79.7 62.7,79.7 62.7,77 57.4,77 55.7,77 53.6,77 55.7,78.5 55.7,79.7 45.1,79.7 
		43.4,79.7 41.3,79.7 43.4,81.8 	"/>
	<linearGradient id="SVGID_2_" gradientUnits="userSpaceOnUse" x1="48.5892" y1="100.9948" x2="68.7699" y2="80.8141">
		<stop  offset="0" style="stop-color:#77FCFC"/>
		<stop  offset="0.2662" style="stop-color:#75F0F7"/>
		<stop  offset="0.7488" style="stop-color:#6ECFEB"/>
		<stop  offset="1" style="stop-color:#6ABCE3"/>
	</linearGradient>
	<polygon class="st1" points="76.6,94.1 76.6,88.7 71.1,88.7 72.1,85.7 65.9,85.7 65.9,85.6 62.1,85.6 63.9,86.9 63.2,88.7 
		55.1,88.7 54.1,85.7 48.6,85.7 46.2,85.7 44.8,85.7 46.6,86.9 47.2,88.7 43.5,88.7 41.7,88.7 39.7,88.7 41.7,90.6 41.7,94.1 	"/>
	<linearGradient id="SVGID_3_" gradientUnits="userSpaceOnUse" x1="12.0083" y1="92.6959" x2="21.1614" y2="83.5428">
		<stop  offset="0" style="stop-color:#77FCFC"/>
		<stop  offset="0.2662" style="stop-color:#75F0F7"/>
		<stop  offset="0.7488" style="stop-color:#6ECFEB"/>
		<stop  offset="1" style="stop-color:#6ABCE3"/>
	</linearGradient>
	<polygon class="st2" points="23.6,90.6 23.6,86 12.9,86 9.9,86 9.1,86 9.9,86.6 9.9,90.6 	"/>
	<linearGradient id="SVGID_4_" gradientUnits="userSpaceOnUse" x1="73.3689" y1="106.8026" x2="96.2122" y2="83.9592">
		<stop  offset="0" style="stop-color:#77FCFC"/>
		<stop  offset="0.2662" style="stop-color:#75F0F7"/>
		<stop  offset="0.7488" style="stop-color:#6ECFEB"/>
		<stop  offset="1" style="stop-color:#6ABCE3"/>
	</linearGradient>
	<polygon class="st3" points="92.4,100.7 92.4,94.1 89.2,94.8 89.2,86.5 92.7,86.5 92.7,80.5 89.2,80.5 89.2,77 83.1,77 83.1,77 
		81.3,77 83.1,78.9 83.1,80.5 81.6,80.5 79.7,80.5 77.8,80.5 79.7,81.8 79.7,86.5 83.1,86.5 83.1,96 79.7,96.7 79.7,103.3 
		83.1,102.6 83.1,112.5 81.3,114.8 87.3,114.8 89.2,112.5 89.2,112.5 89.2,101.3 	"/>
	<linearGradient id="SVGID_5_" gradientUnits="userSpaceOnUse" x1="45.4906" y1="118.4442" x2="71.6237" y2="92.3111">
		<stop  offset="0" style="stop-color:#77FCFC"/>
		<stop  offset="0.2662" style="stop-color:#75F0F7"/>
		<stop  offset="0.7488" style="stop-color:#6ECFEB"/>
		<stop  offset="1" style="stop-color:#6ABCE3"/>
	</linearGradient>
	<path class="st4" d="M68.9,106.7h5.6v-0.5V102v-2.2v-4.6v0h-6v0H49.9v0h-6v0v4.6v2.2l0,0v4.7h5l-7,8h7.4l7-8h7.1v8h0.2l0,0h10.6
		l3.4-4h-8.6V106.7z M49.9,99.8h18.6v2.2h0v1.9l-1.9-1.9H49.9V99.8z"/>
	<linearGradient id="SVGID_6_" gradientUnits="userSpaceOnUse" x1="1.0905" y1="115.3717" x2="37.4688" y2="78.9934">
		<stop  offset="0" style="stop-color:#77FCFC"/>
		<stop  offset="0.2662" style="stop-color:#75F0F7"/>
		<stop  offset="0.7488" style="stop-color:#6ECFEB"/>
		<stop  offset="1" style="stop-color:#6ABCE3"/>
	</linearGradient>
	<path class="st5" d="M34.7,102.1l2.5-3.3v-9.6l-4,5.3l-1.9-9.4h5.9v-4.9h-1.1L35.5,77h-4.6l0.7,3.2h-1.2L29.8,77h-3.9H24h-1.9
		l2.2,1.6l0.3,1.7H8.3H4.2H2.6H2.3H0.4l1.9,1.9v30.3l-1.8,2.3h6l1.8-2.3V97.6h1.5v7.6h0l3.4,3.9l-4.9,5.7h6.9l1.5-1.7l1.5,1.7h6.9
		l-4.9-5.7l3.4-3.9h0v-7.6h1.7v-4.6h-1.7v-1.4h-5.2v2.6l-1.2-1.2h-2.1v-1.4h-2.2H9.9H9.1L9.9,92v0.9H8.3v-7.8h17.3l3.1,15.4
		l-3.6,4.7v9.6l5.1-6.7l1.3,6.7h1l0,0h5.1l3.4-4h-4.5L34.7,102.1z M18.3,97.6v5.7l0,0l-1.6,1.8l-1.6-1.8l0,0v-5.7H18.3z"/>
	<linearGradient id="SVGID_7_" gradientUnits="userSpaceOnUse" x1="89.6511" y1="112.499" x2="118.7915" y2="83.3585">
		<stop  offset="0" style="stop-color:#77FCFC"/>
		<stop  offset="0.2662" style="stop-color:#75F0F7"/>
		<stop  offset="0.7488" style="stop-color:#6ECFEB"/>
		<stop  offset="1" style="stop-color:#6ABCE3"/>
	</linearGradient>
	<polygon class="st6" points="117.1,114.8 113.5,110.2 112,110.2 108.4,105.1 115.1,95.6 115.1,89.6 108.1,89.6 108.1,84.6 
		115.1,84.6 115.1,79.7 108.1,79.7 108.1,77 104,77 104,77 100.2,77 102.1,78.3 102.1,79.7 96.5,79.7 93.9,79.7 92.7,79.7 
		93.9,80.5 93.9,84.6 102.1,84.6 102.1,90.6 102.1,90.6 102.1,91 100.6,89.6 93.9,89.6 93.9,89.6 92.7,89.6 93.9,90.4 93.9,95.6 
		107.3,95.6 104.5,99.6 102.3,96.5 94.5,96.5 100.6,105.1 97,110.2 95.5,110.2 91.9,114.8 101.3,114.8 101.3,114.8 101.5,114.8 
		104.5,110.5 107.5,114.8 107.7,114.8 107.7,114.8 	"/>
</g>
<polygon class="st7" points="45.7,4.5 58.8,40.6 58.8,33.4 "/>
<polygon class="st7" points="33.9,14.2 33.9,33.4 34.8,32.5 "/>
<linearGradient id="SVGID_8_" gradientUnits="userSpaceOnUse" x1="33.8828" y1="37.1489" x2="43.9179" y2="37.1489">
	<stop  offset="0" style="stop-color:#67C7F2"/>
	<stop  offset="0.8485" style="stop-color:#69BEE6"/>
	<stop  offset="1" style="stop-color:#6ABCE3"/>
</linearGradient>
<polygon class="st8" points="33.9,33.4 34.8,32.5 43.9,41.8 "/>
<polygon class="st9" points="43.9,41.8 51.6,62.4 50.5,61 "/>
<g>
	<linearGradient id="SVGID_9_" gradientUnits="userSpaceOnUse" x1="33.8868" y1="14.198" x2="33.8868" y2="14.1956">
		<stop  offset="0" style="stop-color:#77FCFC"/>
		<stop  offset="0.2662" style="stop-color:#75F0F7"/>
		<stop  offset="0.7488" style="stop-color:#6ECFEB"/>
		<stop  offset="1" style="stop-color:#6ABCE3"/>
	</linearGradient>
	<polygon class="st10" points="33.9,14.2 33.9,14.2 33.9,14.2 	"/>
	<linearGradient id="SVGID_10_" gradientUnits="userSpaceOnUse" x1="83.6193" y1="14.1982" x2="83.6193" y2="14.1956">
		<stop  offset="0" style="stop-color:#77FCFC"/>
		<stop  offset="0.2662" style="stop-color:#75F0F7"/>
		<stop  offset="0.7488" style="stop-color:#6ECFEB"/>
		<stop  offset="1" style="stop-color:#6ABCE3"/>
	</linearGradient>
	<polygon class="st11" points="83.6,14.2 83.6,14.2 83.6,14.2 	"/>
	<linearGradient id="SVGID_11_" gradientUnits="userSpaceOnUse" x1="58.753" y1="62.4098" x2="58.753" y2="4.4873">
		<stop  offset="0" style="stop-color:#77FCFC"/>
		<stop  offset="0.2662" style="stop-color:#75F0F7"/>
		<stop  offset="0.7488" style="stop-color:#6ECFEB"/>
		<stop  offset="1" style="stop-color:#6ABCE3"/>
	</linearGradient>
	<polygon class="st12" points="83.6,14.2 83.6,33.4 73.6,41.8 83.6,14.2 81.5,4.5 71.8,4.5 58.8,40.6 45.7,4.5 36,4.5 33.9,14.2 
		43.9,41.8 33.9,33.4 33.9,14.2 29.8,33.4 51.6,62.4 58.8,59.7 66,62.4 87.7,33.4 	"/>
</g>
<polygon class="st13" points="73.6,41.8 73.6,52.3 66,62.4 "/>
<polygon class="st14" points="71.8,4.5 58.8,40.6 58.8,33.4 "/>
<polygon class="st7" points="83.6,14.2 83.6,33.4 82.7,32.5 "/>
<linearGradient id="SVGID_12_" gradientUnits="userSpaceOnUse" x1="-433.7842" y1="37.1489" x2="-423.7491" y2="37.1489" gradientTransform="matrix(-1 0 0 1 -350.1609 0)">
	<stop  offset="0" style="stop-color:#67C7F2"/>
	<stop  offset="0.8485" style="stop-color:#69BEE6"/>
	<stop  offset="1" style="stop-color:#6ABCE3"/>
</linearGradient>
<polygon class="st15" points="83.6,33.4 82.7,32.5 73.6,41.8 "/>
<polygon class="st16" points="71.8,4.5 81.5,4.5 83.6,14.2 73.6,41.8 83.1,14.2 81.2,5 "/>
<polygon class="st7" points="73.6,41.8 66,62.4 67,61 "/>
<polygon class="st17" points="51.6,62.4 58.8,58.8 66,62.4 58.8,59.7 "/>
<polygon class="st13" points="43.9,41.8 43.9,52.3 51.6,62.4 "/>
<polygon class="st7" points="43.9,41.8 51.6,62.4 50.5,61 "/>
<polygon class="st16" points="45.7,4.5 36,4.5 33.9,14.2 43.9,41.8 34.4,14.2 36.3,5 "/>
</svg>
